<?xml version="1.0" standalone="no"?>
<!DOCTYPE svg PUBLIC "-//W3C//DTD SVG 20010904//EN"
 "http://www.w3.org/TR/2001/REC-SVG-20010904/DTD/svg10.dtd">
<svg version="1.0" xmlns="http://www.w3.org/2000/svg"
 width="176.000000pt" height="176.000000pt" viewBox="0 0 176.000000 176.000000"
 preserveAspectRatio="xMidYMid meet">
<metadata>
Created by potrace 1.14, written by Peter Selinger 2001-2017
</metadata>
<g transform="translate(0.000000,176.000000) scale(0.100000,-0.100000)"
fill="#000000" stroke="none">
<path d="M271 1636 c-11 -13 -9 -15 9 -11 13 2 20 1 16 -2 -12 -12 -40 -12
-48 0 -6 9 -8 8 -8 -2 0 -8 -6 -11 -16 -7 -12 5 -14 1 -9 -17 6 -20 6 -20 -6
-5 -13 16 -15 16 -35 -7 -14 -15 -18 -26 -10 -29 6 -2 4 -5 -6 -5 -9 -1 -19 5
-21 12 -3 7 -6 5 -6 -5 -1 -10 4 -18 10 -18 5 0 8 -4 4 -9 -3 -6 -14 -8 -25
-6 -11 2 -20 -1 -20 -7 0 -5 6 -8 14 -5 9 4 14 -2 14 -19 0 -13 -4 -22 -8 -19
-15 9 -18 -36 -3 -50 13 -13 12 -15 -9 -16 -18 -1 -19 -2 -5 -6 18 -5 18 -5 0
-20 -10 -8 -12 -12 -5 -8 14 7 17 -11 2 -20 -13 -8 11 -45 25 -39 5 3 1 -2 -9
-10 -11 -9 -14 -16 -7 -16 7 0 9 -5 6 -10 -4 -6 -12 -7 -18 -3 -7 3 -3 -4 8
-17 17 -20 18 -23 2 -17 -16 6 -16 5 -2 -17 13 -19 13 -25 3 -29 -8 -3 -6 -6
5 -6 10 -1 16 -5 12 -11 -3 -5 -13 -6 -23 -3 -14 5 -13 2 3 -11 11 -10 15 -15
8 -11 -8 3 -10 -1 -7 -15 2 -11 6 -29 8 -39 3 -15 1 -18 -11 -14 -13 5 -13 3
-4 -15 6 -11 16 -23 23 -26 7 -4 3 -4 -10 -2 -17 3 -21 1 -13 -8 13 -15 10
-56 -4 -56 -5 0 -3 -5 5 -10 12 -7 13 -13 3 -28 -9 -15 -8 -19 3 -19 7 0 10 5
7 10 -4 6 -1 7 7 2 10 -6 7 -13 -11 -27 -13 -11 -18 -17 -12 -13 7 3 13 1 13
-6 0 -6 8 -18 18 -25 16 -13 16 -14 -1 -8 -11 4 -17 1 -17 -9 0 -8 6 -17 13
-20 9 -3 9 -8 -2 -18 -8 -9 -11 -9 -7 -2 5 9 2 11 -8 7 -19 -7 -21 -20 -4 -30
7 -5 8 -3 3 5 -6 10 -3 11 14 2 25 -14 28 -23 4 -14 -12 5 -14 3 -8 -7 6 -10
4 -12 -8 -7 -16 6 -16 4 -2 -17 13 -19 13 -25 3 -29 -8 -3 -6 -6 5 -6 10 -1
16 -5 12 -11 -3 -5 -13 -6 -23 -3 -14 5 -13 2 3 -11 11 -10 15 -15 8 -11 -8 3
-10 -1 -7 -15 2 -11 6 -29 8 -39 3 -15 1 -18 -11 -14 -13 5 -13 3 -4 -15 6
-11 16 -23 23 -26 7 -4 3 -4 -10 -2 -17 3 -21 1 -13 -8 13 -15 10 -56 -4 -56
-5 0 -3 -5 5 -10 12 -7 13 -13 3 -28 -9 -15 -8 -19 3 -19 7 0 10 5 7 10 -4 6
-1 7 7 2 10 -6 7 -13 -11 -27 -13 -11 -18 -17 -12 -13 7 3 13 1 13 -6 0 -6 8
-18 17 -25 17 -13 17 -14 1 -8 -23 8 -23 -15 -1 -32 16 -12 15 -12 -7 -8 -14
3 -21 2 -15 -3 6 -4 16 -15 22 -24 10 -13 10 -16 -2 -16 -8 0 -12 4 -9 8 2 4
0 10 -5 13 -21 13 -20 -14 1 -28 12 -9 17 -16 10 -16 -6 0 -12 -5 -12 -11 0
-5 4 -8 9 -5 5 3 12 -1 15 -10 4 -10 2 -13 -7 -8 -6 4 -9 4 -5 -1 4 -4 2 -15
-5 -23 -10 -13 -9 -14 3 -7 18 11 59 18 44 8 -6 -5 -14 -17 -17 -28 l-7 -20
16 20 c15 20 16 20 12 -4 -2 -17 2 -25 15 -27 9 -1 15 2 11 7 -3 5 -10 6 -16
3 -7 -4 -8 -2 -4 4 8 13 36 5 36 -10 0 -6 8 -4 18 3 14 11 13 10 -2 -9 -22
-25 -11 -29 21 -7 20 14 22 14 19 -2 -3 -13 3 -18 20 -19 13 -1 24 2 24 8 0 5
-4 7 -9 3 -5 -3 -12 -2 -15 3 -2 4 6 8 19 8 13 0 21 -4 18 -10 -4 -5 8 -7 30
-3 27 4 41 1 54 -11 16 -16 16 -16 10 0 -3 10 -2 20 3 23 6 4 10 0 10 -9 0
-19 21 -25 43 -12 13 8 20 8 27 -4 8 -13 10 -12 10 3 0 9 -5 17 -12 17 -6 0
-8 3 -5 7 4 3 17 -2 29 -13 12 -10 18 -14 15 -7 -4 6 -3 14 3 18 5 3 10 -1 10
-10 0 -11 5 -15 14 -12 8 3 17 1 20 -6 3 -9 5 -9 5 1 1 6 7 12 15 12 8 0 17
-6 19 -12 4 -8 6 -7 6 4 1 9 -5 19 -11 21 -10 4 -10 6 -1 6 6 1 19 -9 29 -21
11 -15 14 -17 11 -6 -4 10 -2 20 3 23 6 4 10 0 10 -9 0 -19 21 -25 43 -12 13
8 20 8 27 -4 8 -13 10 -12 10 3 0 9 -5 17 -12 17 -6 0 -8 3 -5 7 4 3 17 -2 29
-13 12 -10 18 -14 15 -7 -4 6 -3 14 3 18 5 3 10 -1 10 -10 0 -11 5 -15 14 -12
8 3 17 1 20 -6 3 -9 5 -9 5 1 1 6 7 12 15 12 8 0 17 -6 19 -12 4 -8 6 -7 6 4
1 9 -5 19 -11 21 -10 4 -10 6 -1 6 6 1 19 -9 29 -21 11 -15 14 -17 11 -6 -4
10 -2 20 3 23 6 4 10 0 10 -9 0 -24 23 -25 49 -2 13 11 21 16 18 10 -4 -7 0
-15 9 -18 10 -4 13 -2 8 6 -5 8 -2 9 10 5 10 -4 20 -7 22 -7 3 0 2 -5 -2 -12
-4 -7 -3 -8 5 -4 8 5 9 12 2 20 -7 8 -5 12 9 12 10 0 17 -3 14 -7 -2 -4 3 -10
12 -13 10 -4 13 -2 8 6 -5 8 -2 9 10 5 10 -4 20 -7 22 -7 3 0 2 -5 -2 -12 -4
-7 -3 -8 5 -4 8 5 9 12 2 20 -7 8 -5 12 9 12 10 0 17 -3 14 -7 -2 -4 3 -10 12
-13 10 -4 13 -2 8 6 -5 8 -2 9 10 5 10 -4 20 -7 22 -7 3 0 2 -5 -2 -12 -4 -7
-3 -8 5 -4 8 5 9 12 2 20 -7 8 -5 12 9 12 10 0 17 -3 14 -7 -2 -4 3 -10 12
-13 10 -4 13 -2 8 6 -5 8 -2 9 10 5 10 -4 20 -7 22 -7 3 0 2 -6 -2 -12 -5 -9
-2 -9 9 1 12 9 17 10 17 2 0 -7 5 -9 11 -5 8 4 7 9 -2 15 -7 4 -16 6 -20 3 -4
-2 -10 0 -13 5 -12 18 40 5 52 -14 13 -20 13 -20 9 1 -3 13 1 21 10 21 8 0 12
-6 9 -13 -3 -8 0 -16 6 -20 7 -4 8 -3 4 4 -4 7 -2 12 3 12 6 0 11 -5 11 -11 0
-8 4 -8 13 -1 6 5 25 9 40 7 20 -2 27 1 24 9 -3 7 1 13 9 13 7 0 10 -5 7 -11
-4 -6 1 -5 10 3 9 7 17 10 17 7 0 -4 12 6 27 21 18 19 24 22 20 10 -4 -10 -7
-21 -7 -23 0 -3 -4 -2 -10 1 -5 3 -10 1 -10 -4 0 -6 3 -11 7 -11 10 0 73 72
73 83 0 16 -30 -15 -31 -32 0 -11 -2 -12 -6 -3 -7 18 26 52 51 52 17 0 18 2 6
9 -8 6 -19 7 -25 3 -5 -3 -5 1 2 9 6 8 11 18 11 22 0 5 4 12 8 15 4 4 4 1 -1
-7 -5 -10 -4 -12 4 -7 8 5 7 13 -4 29 -17 25 -19 37 -5 37 6 0 9 -3 9 -7 -3
-20 2 -33 12 -33 8 0 8 4 2 13 -11 14 -11 27 -1 43 4 6 1 11 -7 11 -8 0 -11
-5 -8 -11 4 -6 -1 -5 -10 3 -18 14 -22 22 -9 20 20 -3 31 2 26 15 -3 8 -1 17
5 20 7 5 7 13 -1 26 -9 14 -9 22 3 36 8 10 9 15 4 12 -6 -4 -17 -3 -25 3 -12
7 -12 9 3 9 10 0 15 5 12 10 -4 6 -2 17 5 25 7 8 7 15 1 19 -11 7 -9 25 3 45
6 9 5 12 0 8 -6 -3 -16 -2 -24 4 -12 7 -12 9 3 9 10 0 15 5 12 10 -4 6 -2 17
5 25 7 8 7 15 1 19 -11 7 -9 25 3 45 6 9 5 12 0 8 -6 -3 -16 -2 -24 4 -12 7
-12 9 3 9 10 0 15 5 12 10 -4 6 -2 17 5 25 7 8 7 15 1 19 -10 7 -10 24 1 42 4
6 1 11 -7 11 -8 0 -11 -5 -8 -11 3 -6 2 -7 -2 -3 -16 14 -14 36 3 30 10 -4 13
-2 8 6 -4 6 -3 18 4 26 7 8 7 15 1 19 -10 7 -10 24 1 42 4 6 1 11 -7 11 -8 0
-11 -5 -8 -11 3 -6 2 -7 -2 -3 -16 14 -14 36 3 30 10 -4 13 -2 8 6 -4 6 -2 20
6 29 12 15 11 16 -4 4 -12 -10 -18 -10 -24 -1 -4 8 -3 9 4 5 11 -7 13 -2 15
42 1 9 5 20 10 23 5 3 2 9 -6 12 -11 4 -15 0 -12 -14 2 -11 0 -17 -5 -14 -11
7 -6 40 8 40 6 0 14 4 19 9 4 5 3 7 -2 3 -6 -3 -17 -2 -25 4 -12 7 -12 9 3 9
10 0 15 5 12 10 -4 6 -2 17 5 25 7 8 7 15 1 19 -11 7 -9 25 3 45 6 9 5 12 0 8
-6 -3 -16 -2 -24 4 -13 7 -12 9 2 9 11 0 15 5 12 14 -3 8 0 17 6 21 8 5 8 11
-1 22 -10 12 -10 19 0 35 7 11 9 18 4 15 -5 -3 -15 -2 -23 4 -12 7 -12 9 4 9
17 0 17 2 3 24 -15 23 -15 24 6 19 13 -3 18 -1 12 4 -16 13 -19 47 -3 37 10
-6 11 -5 1 8 -7 8 -10 18 -6 22 4 4 0 4 -10 0 -12 -4 -17 -1 -17 11 0 10 4 13
13 9 8 -5 7 -2 -2 9 -11 14 -16 15 -30 5 -12 -10 -11 -6 3 17 l19 30 -23 -20
-23 -20 13 25 c10 21 10 23 -1 13 -17 -17 -37 -17 -21 -1 7 7 12 17 12 22 0 6
-5 4 -10 -4 -6 -10 -10 -11 -10 -2 0 7 -13 12 -31 12 -32 0 -63 22 -51 36 4 5
0 3 -10 -4 -13 -10 -17 -10 -21 0 -3 8 -6 6 -6 -6 -1 -12 4 -16 14 -13 8 4 16
3 19 -1 10 -17 -33 -9 -49 8 -17 19 -41 18 -30 -1 4 -5 2 -9 -4 -9 -5 0 -12 8
-14 18 -4 15 -5 15 -6 1 0 -9 -8 -19 -16 -23 -15 -5 -22 9 -7 17 4 2 2 3 -4 1
-6 -1 -17 3 -24 9 -10 9 -11 9 -6 0 4 -7 3 -13 -3 -13 -5 0 -11 3 -14 8 -2 4
-2 2 -1 -5 2 -7 -1 -15 -6 -18 -6 -4 -10 0 -10 9 0 19 -21 25 -43 12 -13 -8
-20 -8 -27 4 -8 13 -10 12 -10 -2 0 -10 5 -18 12 -18 6 0 8 -3 5 -7 -4 -3 -17
2 -29 13 -12 10 -18 14 -15 7 4 -6 3 -14 -3 -18 -5 -3 -10 2 -10 11 0 16 -1
16 -16 -2 -8 -10 -13 -14 -10 -8 3 7 -1 15 -10 18 -10 4 -13 2 -8 -6 5 -8 2
-9 -10 -5 -10 4 -20 7 -22 7 -3 0 -2 5 2 12 4 7 3 8 -5 4 -8 -5 -9 -12 -2 -20
7 -8 5 -12 -9 -12 -10 0 -17 3 -14 7 2 4 -3 10 -12 13 -10 4 -13 2 -8 -6 5 -8
2 -9 -10 -5 -10 4 -20 7 -22 7 -3 0 -2 6 2 13 6 9 5 9 -7 1 -15 -13 -72 -16
-64 -4 2 3 -2 7 -10 7 -8 0 -12 -4 -9 -9 3 -4 -6 -8 -20 -8 -13 0 -31 -3 -39
-6 -8 -3 -23 3 -33 13 -16 16 -17 16 -11 1 3 -10 2 -20 -3 -23 -6 -4 -10 0
-10 9 0 19 -21 25 -43 12 -13 -8 -20 -8 -27 4 -8 13 -10 12 -10 -2 0 -10 5
-18 12 -18 6 0 8 -3 5 -7 -4 -3 -17 2 -29 13 -12 10 -18 14 -15 7 4 -6 3 -14
-3 -18 -5 -3 -10 2 -10 11 0 16 -1 16 -16 -2 -8 -10 -13 -14 -10 -8 3 7 -1 15
-10 18 -10 4 -13 2 -8 -6 5 -8 2 -9 -10 -5 -10 4 -20 7 -22 7 -3 0 -2 5 2 12
4 7 3 8 -5 4 -8 -5 -9 -12 -2 -20 7 -8 5 -12 -9 -12 -10 0 -17 3 -14 7 2 4 -3
10 -12 13 -10 4 -13 2 -8 -6 5 -8 2 -9 -10 -5 -10 4 -20 7 -22 7 -3 0 -2 6 2
13 6 9 5 9 -7 1 -17 -14 -71 -15 -63 -2 4 6 -4 5 -16 -2 -18 -10 -24 -9 -31 1
-6 10 -9 11 -9 2 0 -7 -9 -13 -21 -13 -11 0 -18 4 -15 8 3 5 -1 9 -9 9 -8 0
-12 -4 -9 -9 7 -12 -10 -10 -22 2 -8 8 -15 6 -23 -4z m480 -19 c-13 -13 -26
-3 -16 12 3 6 11 8 17 5 6 -4 6 -10 -1 -17z m480 0 c-13 -13 -26 -3 -16 12 3
6 11 8 17 5 6 -4 6 -10 -1 -17z m-881 -2 c0 -2 -9 -3 -19 -2 -11 0 -18 5 -15
9 4 6 34 0 34 -7z m35 5 c3 -5 1 -10 -4 -10 -6 0 -11 5 -11 10 0 6 2 10 4 10
3 0 8 -4 11 -10z m40 0 c3 -5 1 -10 -4 -10 -6 0 -11 5 -11 10 0 6 2 10 4 10 3
0 8 -4 11 -10z m40 -8 c-3 -3 -11 0 -18 7 -9 10 -8 11 6 5 10 -3 15 -9 12 -12z
m430 8 c-3 -5 -12 -10 -18 -10 -7 0 -6 4 3 10 19 12 23 12 15 0z m55 -5 c0 -2
-9 -3 -19 -2 -11 0 -18 5 -15 9 4 6 34 0 34 -7z m655 -163 c-3 -3 -11 0 -18 7
-9 10 -8 11 6 5 10 -3 15 -9 12 -12z m-956 -49 c-3 -18 2 -33 10 -33 5 0 7 10
4 23 -6 22 -6 21 16 -3 15 -17 24 -21 27 -12 3 6 12 12 20 12 9 0 12 -5 9 -12
-4 -7 2 -3 12 10 19 23 19 23 40 3 18 -17 22 -18 27 -5 4 10 2 13 -7 8 -9 -5
-9 -4 0 6 9 10 15 10 28 -4 16 -16 18 -16 31 1 12 15 13 15 8 2 -3 -10 0 -20
7 -25 8 -4 10 -3 5 4 -4 7 -1 12 8 12 8 0 17 -6 20 -12 3 -7 3 -2 1 12 -6 25
-5 25 10 -2 18 -31 21 -33 31 -16 4 6 3 8 -3 5 -5 -3 -10 0 -10 7 0 7 6 13 13
13 7 0 11 -4 8 -8 -2 -4 2 -11 9 -16 8 -4 19 -17 25 -28 7 -12 12 -14 12 -6 0
11 3 11 17 0 11 -10 14 -10 9 -1 -4 6 -2 12 3 12 6 0 11 -9 11 -19 0 -11 5
-23 11 -27 8 -5 8 -9 -1 -14 -8 -5 -7 -9 5 -13 9 -4 13 -3 10 3 -3 6 -2 10 4
10 5 0 9 -14 9 -31 -1 -31 18 -53 36 -42 5 3 6 1 2 -6 -4 -6 -12 -8 -18 -5 -6
4 -8 1 -6 -7 3 -8 11 -13 17 -11 7 1 10 -2 6 -8 -3 -6 -9 -8 -13 -6 -4 2 -7
-6 -7 -19 0 -13 3 -21 8 -18 4 2 7 -3 7 -12 0 -10 -5 -13 -12 -9 -10 6 -10 5
-1 -8 7 -8 9 -19 5 -23 -4 -5 2 -5 13 -2 19 7 19 6 3 -7 -10 -7 -18 -19 -18
-25 0 -7 -4 -9 -10 -6 -6 4 -7 -1 -3 -11 5 -13 3 -15 -8 -9 -11 6 -12 5 -2 -5
7 -8 9 -19 4 -29 -5 -9 -7 -24 -6 -33 3 -15 0 -16 -17 -7 -18 10 -19 9 -8 -11
7 -13 8 -20 3 -17 -4 3 -19 0 -32 -7 -15 -9 -20 -16 -12 -20 6 -4 11 -2 11 3
0 6 4 11 10 11 5 0 8 -14 6 -30 -3 -26 -1 -29 12 -18 13 11 15 10 10 -10 -6
-20 -4 -21 9 -10 14 11 16 10 11 -14 -3 -16 -1 -25 4 -22 5 3 8 0 7 -7 -4 -19
20 -61 31 -54 5 3 11 1 15 -4 3 -6 -4 -8 -15 -6 -14 3 -20 0 -17 -8 2 -7 13
-11 23 -9 11 2 15 -1 9 -5 -6 -4 -10 -15 -10 -23 1 -8 -2 -22 -6 -30 -4 -8 -3
-23 3 -34 8 -15 7 -18 -5 -13 -13 5 -13 2 -2 -20 13 -25 10 -57 -4 -48 -4 2
-8 -2 -8 -10 0 -8 3 -12 7 -10 4 2 7 -2 7 -10 0 -8 -4 -12 -9 -9 -4 3 -8 -2
-8 -10 0 -10 6 -13 15 -10 8 4 15 1 15 -4 0 -6 -9 -9 -20 -7 -11 2 -22 0 -25
-6 -4 -5 -1 -9 4 -9 6 0 11 -8 11 -17 0 -14 -2 -15 -9 -4 -5 7 -14 10 -20 6
-9 -5 -7 -11 6 -21 17 -13 17 -14 -1 -7 -14 5 -17 3 -11 -6 6 -11 3 -11 -16 0
-23 12 -23 11 -9 -6 8 -10 10 -16 3 -12 -6 4 -18 1 -26 -7 -8 -8 -18 -12 -22
-8 -5 4 -5 -1 -2 -10 3 -10 1 -20 -5 -24 -7 -4 -8 -3 -4 5 6 8 0 10 -18 5 -18
-4 -26 -2 -26 7 0 7 -14 0 -31 -17 -23 -21 -29 -24 -21 -9 9 18 7 21 -11 22
-17 2 -19 0 -7 -7 13 -8 12 -10 -3 -10 -11 0 -15 -4 -11 -12 4 -7 3 -8 -5 -4
-6 4 -9 12 -6 17 4 5 -3 5 -18 0 -18 -7 -29 -5 -42 7 -16 16 -17 16 -5 -8 13
-24 12 -24 -5 -10 -10 8 -21 14 -24 13 -3 0 -5 4 -3 10 2 7 -1 7 -10 0 -7 -6
-21 -9 -31 -8 -9 2 -15 -1 -11 -6 3 -5 0 -9 -5 -9 -6 0 -11 6 -11 13 0 8 -4 7
-10 -3 -9 -13 -10 -13 -11 0 -1 8 -1 19 0 23 1 5 -3 6 -9 2 -6 -4 -8 -16 -5
-28 2 -12 2 -16 -1 -9 -3 6 -11 9 -16 6 -7 -4 -8 -2 -4 4 4 7 2 12 -3 12 -6 0
-11 5 -11 11 0 5 6 7 13 4 6 -4 1 3 -12 14 -13 12 -18 21 -12 21 6 0 8 7 4 17
-4 10 -2 14 4 10 7 -5 9 0 6 13 -3 11 -8 18 -12 16 -4 -3 -7 6 -7 19 0 13 4
21 8 19 5 -3 5 -10 2 -16 -4 -7 -2 -8 5 -4 6 4 9 11 6 16 -3 4 1 11 7 13 8 3
6 6 -4 6 -21 1 -23 12 -6 29 16 16 -4 16 -22 0 -8 -7 -6 -3 4 10 11 12 16 22
12 22 -4 0 -3 8 3 18 7 13 5 20 -12 30 -12 7 -14 11 -5 8 9 -3 22 2 29 10 10
12 9 13 -7 7 -17 -6 -17 -5 -5 10 16 20 2 23 -19 5 -8 -7 -6 -3 4 10 11 12 16
22 12 22 -4 0 -3 8 3 18 7 13 5 20 -12 30 -12 7 -15 11 -7 10 9 -2 17 2 19 7
1 6 7 15 12 22 7 7 6 14 -1 18 -6 3 -7 11 -4 17 5 7 2 9 -8 6 -21 -9 -16 26 8
54 15 18 15 20 2 9 -20 -15 -25 -2 -6 17 16 16 -4 16 -22 0 -8 -7 -6 -3 4 10
11 12 16 22 12 22 -4 0 -3 8 3 18 7 13 5 20 -12 30 -20 11 -20 12 -2 10 11 -2
20 2 20 7 0 6 4 15 8 22 4 6 3 14 -3 18 -6 4 -7 11 -4 17 5 7 2 9 -8 6 -21 -9
-16 26 8 54 15 18 15 20 2 9 -20 -15 -25 -2 -6 17 16 16 -4 16 -22 0 -8 -7 -6
-3 4 10 11 12 16 22 12 22 -4 0 -3 8 3 18 7 13 5 20 -12 30 -15 8 -17 12 -5
10 9 -2 17 2 18 7 1 6 6 15 11 22 7 7 6 14 -1 18 -6 3 -7 11 -4 17 5 7 2 9 -8
5 -12 -4 -14 -1 -11 14 3 10 10 19 15 19 5 0 6 -5 2 -12 -4 -7 -3 -8 5 -4 9 6
9 11 0 22 -11 13 -6 18 14 15 5 -1 6 3 2 9 -3 6 -11 8 -16 5 -5 -4 -9 -1 -9 4
0 6 5 11 10 11 6 0 9 3 9 8 -2 12 1 22 6 22 3 0 4 -3 4 -7z m61 -1 c0 -13 -12
-22 -22 -16 -10 6 -1 24 13 24 5 0 9 -4 9 -8z m324 -41 c-9 -9 -34 -9 -34 -1
0 5 9 8 20 7 10 -1 17 -3 14 -6z m-909 -11 c-3 -5 -12 -10 -18 -10 -7 0 -6 4
3 10 19 12 23 12 15 0z m959 -43 c7 -6 6 -7 -4 -4 -8 2 -16 12 -17 23 -2 13
-1 15 4 4 3 -8 11 -19 17 -23z m530 14 c3 -5 -1 -14 -8 -20 -12 -10 -14 -9
-11 6 2 10 4 19 4 21 2 5 10 2 15 -7z m-984 -56 c0 -1 -6 -7 -13 -13 -10 -8
-13 -6 -13 7 0 11 6 17 13 14 7 -3 13 -6 13 -8z m-495 -5 c3 -6 -1 -7 -9 -4
-18 7 -21 14 -7 14 6 0 13 -4 16 -10z m976 -22 c-10 -11 -11 -9 -5 6 6 15 4
17 -6 11 -9 -6 -11 -4 -5 4 5 9 10 10 18 2 8 -8 7 -14 -2 -23z m496 -3 c0 -8
-4 -12 -9 -9 -5 3 -6 10 -3 15 9 13 12 11 12 -6z m7 -34 c3 -5 -1 -14 -8 -20
-12 -10 -14 -9 -11 6 2 10 4 19 4 21 2 5 10 2 15 -7z m-984 -176 c0 -1 -6 -7
-13 -13 -10 -8 -13 -6 -13 7 0 11 6 17 13 14 7 -3 13 -6 13 -8z m-504 -39 c0
-14 -3 -23 -7 -20 -6 3 -6 22 0 42 3 10 7 -2 7 -22z m1488 -77 c-3 -5 -10 -7
-15 -3 -5 3 -7 10 -3 15 3 5 10 7 15 3 5 -3 7 -10 3 -15z m-497 -110 c-3 -11
2 -23 11 -29 10 -5 12 -10 5 -10 -6 0 -15 5 -19 12 -11 17 -11 58 -1 51 5 -3
7 -14 4 -24z m497 2 c3 -5 -1 -14 -8 -20 -12 -10 -14 -9 -11 6 2 10 4 19 4 21
2 5 10 2 15 -7z m-984 -16 c0 -1 -6 -7 -13 -13 -10 -8 -13 -6 -13 7 0 11 6 17
13 14 7 -3 13 -6 13 -8z m977 -70 c0 -8 -4 -12 -9 -9 -5 3 -6 10 -3 15 9 13
12 11 12 -6z m7 -34 c3 -5 -1 -14 -8 -20 -12 -10 -14 -9 -11 6 2 10 4 19 4 21
2 5 10 2 15 -7z m-467 -36 c0 -8 -4 -12 -9 -9 -5 3 -6 10 -3 15 9 13 12 11 12
-6z m460 -50 c0 -8 -4 -12 -9 -9 -5 3 -6 10 -3 15 9 13 12 11 12 -6z m7 -34
c3 -5 -1 -14 -8 -20 -12 -10 -14 -9 -11 6 2 10 4 19 4 21 2 5 10 2 15 -7z
m-1488 -55 c0 -14 -3 -23 -7 -20 -6 3 -6 22 0 42 3 10 7 -2 7 -22z m1488 -65
c3 -5 -1 -14 -8 -20 -12 -10 -14 -9 -11 6 2 10 4 19 4 21 2 5 10 2 15 -7z
m-564 -65 c0 -3 -4 -8 -10 -11 -5 -3 -10 -1 -10 4 0 6 5 11 10 11 6 0 10 -2
10 -4z m-90 -36 c12 -7 10 -9 -8 -7 -12 0 -22 5 -22 9 0 11 12 10 30 -2z
m-213 -17 c0 -9 -4 -10 -14 -2 -7 6 -13 12 -13 14 0 1 6 2 13 2 8 0 14 -6 14
-14z m-277 -181 c0 -13 -12 -22 -22 -16 -10 6 -1 24 13 24 5 0 9 -4 9 -8z
m120 0 c0 -5 -7 -9 -15 -9 -8 0 -12 4 -9 9 3 4 9 8 15 8 5 0 9 -4 9 -8z m120
0 c0 -13 -12 -22 -22 -16 -10 6 -1 24 13 24 5 0 9 -4 9 -8z m120 0 c0 -5 -7
-9 -15 -9 -8 0 -12 4 -9 9 3 4 9 8 15 8 5 0 9 -4 9 -8z m120 0 c0 -13 -12 -22
-22 -16 -10 6 -1 24 13 24 5 0 9 -4 9 -8z m440 -4 c0 -4 -4 -8 -9 -8 -6 0 -12
4 -15 8 -3 5 1 9 9 9 8 0 15 -4 15 -9z m40 0 c0 -4 -4 -8 -9 -8 -6 0 -12 4
-15 8 -3 5 1 9 9 9 8 0 15 -4 15 -9z"/>
<path d="M763 1385 c0 -8 4 -12 9 -9 5 3 6 10 3 15 -9 13 -12 11 -12 -6z"/>
<path d="M820 1240 c0 -3 -7 -15 -15 -26 -11 -13 -14 -14 -13 -4 2 8 8 19 13
23 6 5 5 7 -3 5 -8 -2 -12 -6 -11 -8 1 -3 -3 -16 -10 -29 -12 -21 -11 -23 2
-18 11 4 13 0 9 -16 -3 -12 -10 -25 -16 -29 -8 -5 -7 -8 1 -8 12 0 9 -42 -4
-63 -4 -6 0 -8 10 -4 11 4 14 2 10 -8 -3 -8 -9 -13 -14 -10 -4 3 -6 -4 -4 -15
2 -11 -4 -24 -13 -31 -12 -7 -13 -9 -2 -6 17 4 52 -28 42 -39 -4 -5 1 -2 11 5
15 12 17 11 18 -5 0 -13 2 -15 6 -5 3 8 -2 20 -13 28 -19 14 -15 17 10 7 9 -3
16 -12 16 -19 0 -14 24 -14 37 -1 4 4 2 6 -6 4 -7 -2 -16 4 -18 12 -4 13 -3
13 6 0 6 -8 11 -10 11 -5 0 6 8 1 17 -10 13 -16 15 -17 10 -2 -6 15 2 21 24
19 3 -1 5 9 5 21 -1 12 4 21 11 20 7 -2 10 4 6 13 -5 13 -7 13 -14 2 -5 -8 -7
-3 -5 15 1 15 6 30 11 35 4 4 5 2 1 -5 -3 -6 -2 -14 3 -17 5 -4 8 2 6 11 -2
10 -4 22 -4 26 -1 5 -7 5 -13 1 -9 -5 -9 -3 1 9 7 9 18 14 24 10 6 -3 7 -1 3
5 -4 6 -12 9 -20 6 -7 -3 -13 2 -13 10 0 9 6 12 16 9 12 -5 11 -1 -4 14 -11
11 -24 18 -29 15 -5 -3 -6 0 -2 7 6 9 11 9 21 1 8 -7 15 -7 19 -1 9 14 -4 19
-39 15 -29 -3 -29 -2 -8 9 21 11 21 13 5 23 -19 12 -45 7 -37 -7 4 -5 -1 -6
-9 -3 -9 3 -16 9 -16 13 0 4 -7 8 -15 8 -8 0 -15 -3 -15 -7z m-10 -225 c0 -2
-6 -5 -13 -8 -8 -3 -14 1 -14 8 0 7 6 11 14 8 7 -3 13 -6 13 -8z"/>
<path d="M765 1160 c-3 -5 -1 -10 4 -10 6 0 11 5 11 10 0 6 -2 10 -4 10 -3 0
-8 -4 -11 -10z"/>
<path d="M630 1091 c0 -7 -5 -9 -12 -5 -7 5 -8 3 -3 -5 5 -9 10 -10 18 -2 6 6
8 14 4 18 -4 3 -7 1 -7 -6z"/>
<path d="M1097 1093 c-10 -9 -9 -23 1 -23 5 0 9 7 9 15 0 17 -1 18 -10 8z"/>
<path d="M630 941 c0 -6 4 -13 10 -16 6 -3 7 1 4 9 -7 18 -14 21 -14 7z"/>
<path d="M630 851 c0 -7 -5 -9 -12 -5 -7 5 -8 3 -3 -5 5 -9 10 -10 18 -2 6 6
8 14 4 18 -4 3 -7 1 -7 -6z"/>
<path d="M824 818 c-3 -5 -10 -6 -15 -3 -5 3 -6 0 -3 -8 3 -8 0 -18 -7 -23 -7
-4 -10 -3 -5 4 3 6 2 13 -3 16 -5 4 -8 -1 -7 -10 1 -8 8 -19 15 -23 10 -6 9
-10 -4 -14 -11 -5 -14 -3 -9 6 4 7 3 9 -2 4 -5 -5 -9 -21 -10 -36 0 -15 -4
-32 -8 -39 -5 -8 -3 -11 5 -10 7 2 13 -1 14 -7 0 -5 4 -16 9 -23 7 -12 4 -12
-15 -2 -23 12 -23 11 -7 -5 12 -14 14 -24 7 -43 -8 -20 -7 -23 5 -19 10 4 13
1 9 -8 -3 -8 -8 -13 -12 -11 -4 3 -7 -5 -8 -17 0 -12 1 -16 4 -9 3 9 10 4 19
-13 18 -35 18 -44 1 -20 -11 14 -16 15 -22 5 -5 -8 -4 -11 2 -7 6 4 13 0 17
-8 3 -9 12 -12 22 -8 13 5 15 3 9 -7 -5 -9 -4 -11 4 -6 6 4 9 11 6 16 -3 4 2
11 11 14 8 3 12 2 9 -4 -3 -6 1 -11 9 -11 25 -2 30 -4 46 -14 13 -8 13 -7 1 8
-12 15 -11 17 8 17 11 0 21 4 21 10 0 5 -8 7 -17 4 -15 -5 -15 -4 -3 4 9 7 18
8 26 1 9 -8 11 -5 7 12 -5 16 -3 20 6 15 15 -10 11 25 -4 36 -6 4 -2 8 8 8 15
0 16 3 7 20 -9 16 -8 20 5 20 8 0 15 5 15 11 0 5 -5 7 -12 3 -7 -5 -9 -2 -5 9
4 10 2 14 -7 11 -7 -3 -13 2 -13 10 0 8 6 12 15 9 12 -5 12 -2 3 16 -7 12 -17
18 -23 15 -7 -4 -8 -3 -4 5 4 6 12 9 17 6 5 -4 9 -1 9 4 0 6 -4 11 -10 11 -5
0 -10 5 -10 11 0 5 5 7 11 4 6 -4 5 2 -3 14 -7 12 -19 21 -26 21 -7 0 -21 7
-30 16 -14 15 -17 15 -29 -2 -7 -10 -13 -12 -13 -6 0 10 -5 10 -20 2 -16 -8
-18 -8 -14 4 3 8 14 13 25 11 10 -2 19 0 19 5 0 11 -40 9 -46 -2z m121 -47 c3
-5 2 -12 -3 -15 -5 -3 -9 1 -9 9 0 17 3 19 12 6z m-139 -43 c4 -7 3 -8 -4 -4
-7 4 -12 2 -12 -5 0 -7 -3 -10 -6 -6 -6 5 3 27 11 27 2 0 7 -5 11 -12z m84
-228 c0 -5 -2 -10 -4 -10 -3 0 -8 5 -11 10 -3 6 -1 10 4 10 6 0 11 -4 11 -10z"/>
<path d="M630 701 c0 -6 4 -13 10 -16 6 -3 7 1 4 9 -7 18 -14 21 -14 7z"/>
<path d="M1107 699 c7 -7 15 -10 18 -7 3 3 -2 9 -12 12 -14 6 -15 5 -6 -5z"/>
<path d="M630 581 c0 -6 4 -13 10 -16 6 -3 7 1 4 9 -7 18 -14 21 -14 7z"/>
<path d="M630 401 c0 -6 4 -13 10 -16 6 -3 7 1 4 9 -7 18 -14 21 -14 7z"/>
<path d="M1476 1635 c-3 -8 -1 -15 4 -15 6 0 10 7 10 15 0 8 -2 15 -4 15 -2 0
-6 -7 -10 -15z"/>
<path d="M90 859 c0 -5 5 -7 10 -4 6 3 10 8 10 11 0 2 -4 4 -10 4 -5 0 -10 -5
-10 -11z"/>
<path d="M90 379 c0 -5 5 -7 10 -4 6 3 10 8 10 11 0 2 -4 4 -10 4 -5 0 -10 -5
-10 -11z"/>
</g>
</svg>
